<svg xmlns="http://www.w3.org/2000/svg" style="display: none;">


    <symbol id="icon-box" viewBox="0 -960 960 960">
        <path
            d="M200-647.69v423.07q0 10.77 6.92 17.7 6.93 6.92 17.7 6.92h510.76q10.77 0 17.7-6.92 6.92-6.93 6.92-17.7v-423.07H600v271.54l-120-60-120 60v-271.54H200ZM224.62-160q-26.85 0-45.74-18.88Q160-197.77 160-224.62v-435.92q0-11.69 3.73-22t11.19-19l62.31-74.84q8.69-11.7 21.73-17.66Q272-800 286.92-800h384.62q14.92 0 28.34 5.96 13.43 5.96 22.12 17.66L785.08-700q7.46 8.69 11.19 19.38 3.73 10.7 3.73 22.39v433.61q0 26.85-18.88 45.74Q762.23-160 735.38-160H224.62Zm-9.39-527.69H744l-53.23-63.85q-3.85-3.84-8.85-6.15-5-2.31-10.38-2.31H287.69q-5.38 0-10.38 2.31-5 2.31-8.85 6.15l-53.23 63.85Zm184.77 40v206.15l80-40 80 40v-206.15H400Zm-200 0h560-560Z" />
    </symbol>

    <symbol id="icon-reports" viewBox="0 -960 960 960">
        <path
            d="M120-160v-40h720v40H120Zm40-110.77V-480h80v209.23h-80Zm186.15 0V-680h80v409.23h-80Zm186.93 0V-560h80v289.23h-80Zm186.92 0V-800h80v529.23h-80Z" />
    </symbol>

    <symbol id="icon-pdv" viewBox="0 -960 960 960">
        <path
            d="M176.92-740v-40h606.16v40H176.92ZM180-180v-240h-49.23v-40l46.15-200h606.16l46.15 200v40H780v240h-40v-240H540v240H180Zm40-40h280v-200H220v200Zm-48.77-240h617.54-617.54Zm0 0h617.54l-37.08-160H208.31l-37.08 160Z" />
    </symbol>

    <symbol id="icon-estoque" viewBox="0 -960 960 960">
        <path
            d="M160-200h120v-320h400v320h120v-426L480-754 160-626v426Zm-40 40v-493.08l360-143.84 360 143.84V-160H640v-320H320v320H120Zm262.31 0v-61.54h61.54V-160h-61.54Zm66.92-120v-61.54h61.54V-280h-61.54Zm66.92 120v-61.54h61.54V-160h-61.54ZM280-520h400-400Z" />
    </symbol>

    <symbol id="icon-export" viewBox="0 -960 960 960">
        <path
            d="M480-480ZM218.15-93.46 190.62-122l137.99-138H209.38v-40h186.77v186.77h-40v-118.23l-138 138ZM491.54-120v-40h203.84q10.77 0 17.7-6.92 6.92-6.93 6.92-17.7V-640H560v-160H264.62q-10.77 0-17.7 6.92-6.92 6.93-6.92 17.7v380h-40v-380q0-26.85 18.88-45.74Q237.77-840 264.62-840H580l180 180v475.38q0 26.85-18.88 45.74Q722.23-120 695.38-120H491.54Z" />
    </symbol>

    <symbol id="icon-menu" viewBox="0 -960 960 960">
        <path d="M160-269.23v-40h640v40H160ZM160-460v-40h640v40H160Zm0-190.77v-40h640v40H160Z" />
    </symbol>

    <symbol id="icon-new-product" viewBox="0 -960 960 960">
        <path
            d="M490.77-200v-40h102.31q6.15 0 11.15-2.31t8.85-6.92L790-480 613.08-710.77q-3.85-4.61-8.85-6.92-5-2.31-11.15-2.31H184.62q-10.77 0-17.7 6.92-6.92 6.93-6.92 17.7v160h-40v-160.39q0-26.46 18.98-45.35Q157.96-760 184.62-760h408.46q15.34 0 29.07 6.66t22.62 18.42L840-480 644.77-225.08q-8.89 11.76-22.62 18.42-13.73 6.66-29.07 6.66H490.77Zm-15.39-280Zm-240 320v-120h-120v-40h120v-120h40v120h120v40h-120v120h-40Z" />
    </symbol>

    <symbol id="icon-date-range" viewBox="0 -960 960 960">
        <path
            d="M291.5-411.5Q280-423 280-440t11.5-28.5Q303-480 320-480t28.5 11.5Q360-457 360-440t-11.5 28.5Q337-400 320-400t-28.5-11.5Zm160 0Q440-423 440-440t11.5-28.5Q463-480 480-480t28.5 11.5Q520-457 520-440t-11.5 28.5Q497-400 480-400t-28.5-11.5Zm160 0Q600-423 600-440t11.5-28.5Q623-480 640-480t28.5 11.5Q680-457 680-440t-11.5 28.5Q657-400 640-400t-28.5-11.5ZM200-80q-33 0-56.5-23.5T120-160v-560q0-33 23.5-56.5T200-800h40v-80h80v80h320v-80h80v80h40q33 0 56.5 23.5T840-720v560q0 33-23.5 56.5T760-80H200Zm0-80h560v-400H200v400Zm0-480h560v-80H200v80Zm0 0v-80 80Z" />
    </symbol>

    <symbol id="icon-money" viewBox="0 -960 960 960">
        <path
            d="M441-120v-86q-53-12-91.5-46T293-348l74-30q15 48 44.5 73t77.5 25q41 0 69.5-18.5T587-356q0-35-22-55.5T463-458q-86-27-118-64.5T313-614q0-65 42-101t86-41v-84h80v84q50 8 82.5 36.5T651-650l-74 32q-12-32-34-48t-60-16q-44 0-67 19.5T393-614q0 33 30 52t104 40q69 20 104.5 63.5T667-358q0 71-42 108t-104 46v84h-80Z" />
    </symbol>

    <symbol id="icon-bag-money" viewBox="0 -960 960 960">
        <path
            d="M336-120q-91 0-153.5-62.5T120-336q0-38 13-74t37-65l142-171-97-194h530l-97 194 142 171q24 29 37 65t13 74q0 91-63 153.5T624-120H336Zm144-200q-33 0-56.5-23.5T400-400q0-33 23.5-56.5T480-480q33 0 56.5 23.5T560-400q0 33-23.5 56.5T480-320Zm-95-360h190l40-80H345l40 80Zm-49 480h288q57 0 96.5-39.5T760-336q0-24-8.5-46.5T728-423L581-600H380L232-424q-15 18-23.5 41t-8.5 47q0 57 39.5 96.5T336-200Z" />
    </symbol>

    <symbol id="icon-ticket" viewBox="0 -960 960 960">
        <path
            d="M480-280q17 0 28.5-11.5T520-320q0-17-11.5-28.5T480-360q-17 0-28.5 11.5T440-320q0 17 11.5 28.5T480-280Zm0-160q17 0 28.5-11.5T520-480q0-17-11.5-28.5T480-520q-17 0-28.5 11.5T440-480q0 17 11.5 28.5T480-440Zm0-160q17 0 28.5-11.5T520-640q0-17-11.5-28.5T480-680q-17 0-28.5 11.5T440-640q0 17 11.5 28.5T480-600Zm320 440H160q-33 0-56.5-23.5T80-240v-160q33 0 56.5-23.5T160-480q0-33-23.5-56.5T80-560v-160q0-33 23.5-56.5T160-800h640q33 0 56.5 23.5T880-720v160q-33 0-56.5 23.5T800-480q0 33 23.5 56.5T880-400v160q0 33-23.5 56.5T800-160Zm0-80v-102q-37-22-58.5-58.5T720-480q0-43 21.5-79.5T800-618v-102H160v102q37 22 58.5 58.5T240-480q0 43-21.5 79.5T160-342v102h640ZM480-480Z" />
    </symbol>

    <symbol id="icon-product-sell" viewBox="0 -960 960 960">
        <path
            d="M200-80q-33 0-56.5-23.5T120-160v-451q-18-11-29-28.5T80-680v-120q0-33 23.5-56.5T160-880h640q33 0 56.5 23.5T880-800v120q0 23-11 40.5T840-611v451q0 33-23.5 56.5T760-80H200Zm0-520v440h560v-440H200Zm-40-80h640v-120H160v120Zm200 280h240v-80H360v80Zm120 20Z" />
    </symbol>

    <symbol id="icon-vendas-dia" viewBox="0 -960 960 960">
        <path
            d="M320-414v-306h120v306l-60-56-60 56Zm200 60v-526h120v406L520-354ZM120-216v-344h120v224L120-216Zm0 98 258-258 142 122 224-224h-64v-80h200v200h-80v-64L524-146 382-268 232-118H120Z" />
    </symbol>

    <symbol id="icon-top-produtos" viewBox="0 -960 960 960">
        <path
            d="M280-120v-80h160v-124q-49-11-87.5-41.5T296-442q-75-9-125.5-65.5T120-640v-40q0-33 23.5-56.5T200-760h80v-80h400v80h80q33 0 56.5 23.5T840-680v40q0 76-50.5 132.5T664-442q-18 46-56.5 76.5T520-324v124h160v80H280Zm0-408v-152h-80v40q0 38 22 68.5t58 43.5Zm285 93q35-35 35-85v-240H360v240q0 50 35 85t85 35q50 0 85-35Zm115-93q36-13 58-43.5t22-68.5v-40h-80v152Zm-200-52Z" />
    </symbol>

    <symbol id="icon-vendas-geral-semana" viewBox="0 -960 960 960">
        <path
            d="M856-390 570-104q-12 12-27 18t-30 6q-15 0-30-6t-27-18L103-457q-11-11-17-25.5T80-513v-287q0-33 23.5-56.5T160-880h287q16 0 31 6.5t26 17.5l352 353q12 12 17.5 27t5.5 30q0 15-5.5 29.5T856-390ZM513-160l286-286-353-354H160v286l353 354ZM260-640q25 0 42.5-17.5T320-700q0-25-17.5-42.5T260-760q-25 0-42.5 17.5T200-700q0 25 17.5 42.5T260-640Zm220 160Z" />
    </symbol>

    <symbol id="icon-sale" viewBox="0 -960 960 960">
        <path
            d="M223.5-103.5Q200-127 200-160t23.5-56.5Q247-240 280-240t56.5 23.5Q360-193 360-160t-23.5 56.5Q313-80 280-80t-56.5-23.5Zm400 0Q600-127 600-160t23.5-56.5Q647-240 680-240t56.5 23.5Q760-193 760-160t-23.5 56.5Q713-80 680-80t-56.5-23.5ZM246-720l96 200h280l110-200H246Zm-38-80h590q23 0 35 20.5t1 41.5L692-482q-11 20-29.5 31T622-440H324l-44 80h480v80H280q-45 0-68-39.5t-2-78.5l54-98-144-304H40v-80h130l38 80Zm134 280h280-280Z" />
    </symbol>
</svg>